# xmcd
#
# Track frame offsets:
#	150
#	16834
#	47003
#	65815
#	86667
#	101559
#	115023
#	126720
#	138735
#	155383
#	163788
#	180810
#	204063
#
# Disc length: 3319 seconds
#
# Revision: 0
# Processed by: cddbd v1.5.2PL0 Copyright (c) Steve Scherf et al.
# Submitted via: EasyCDDAExtractor 12.0.1.1
#
DISCID=ab0cf50d
DTITLE=Petunia and The Vipers - Live at the Cafe Montmartre
DYEAR=1900
DGENRE=Country
TTITLE0=God's Gonna Cut You Down
TTITLE1=Never, Never Again, The Ballad of Handsome Ned
TTITLE2=The Cattle Call
TTITLE3=Ghost Riders in the Sky
TTITLE4=Seasons of My Heart
TTITLE5=Wayfaring Stranger
TTITLE6=Dog Gone Lonesome
TTITLE7=Knee Deep in the Blues
TTITLE8=Ramblin Man
TTITLE9=I Ain't Never
TTITLE10=Don't Worry About Me
TTITLE11=The Big rock Candy Mountain
TTITLE12=Wake Up Sinnners, Ain't No Grave, Mercy
EXTD=
EXTT0=
EXTT1=
EXTT2=
EXTT3=
EXTT4=
EXTT5=
EXTT6=
EXTT7=
EXTT8=
EXTT9=
EXTT10=
EXTT11=
EXTT12=
PLAYORDER=
